<?xml version="1.0" encoding="utf-8"?>
<!-- Generator: Adobe Illustrator 20.1.0, SVG Export Plug-In . SVG Version: 6.00 Build 0)  -->
<svg version="1.1" id="Layer_1" xmlns="http://www.w3.org/2000/svg" xmlns:xlink="http://www.w3.org/1999/xlink" x="0px" y="0px"
	 viewBox="0 0 595.3 841.9" style="enable-background:new 0 0 595.3 841.9;" xml:space="preserve">
<style type="text/css">
	.st0{fill:#C2617F;}
</style>
<path class="st0" d="M317.9,484.5L317.9,484.5L291.4,511l0,0l0,0l-26.5-26.5l0,0c-7.3-7.3-7.3-19.2,0-26.5c7.3-7.3,19.2-7.3,26.5,0
	l0,0l0,0l0,0l0,0c7.3-7.3,19.2-7.3,26.5,0C325.2,465.3,325.2,477.2,317.9,484.5z"/>
<path class="st0" d="M291.4,513.9l-27.9-27.9c-8.1-8.1-8.1-21.2,0-29.3c7.6-7.6,19.8-8.1,27.9-1.3c8.2-6.8,20.3-6.3,27.9,1.3
	c8.1,8.1,8.1,21.2,0,29.3L291.4,513.9z M291.4,508.2l25.1-25.1c6.5-6.5,6.5-17.1,0-23.7s-17.1-6.5-23.7,0l-1.4,1.4l-1.4-1.4
	c-6.5-6.5-17.2-6.5-23.7,0s-6.5,17.1,0,23.7L291.4,508.2z"/>
</svg>
