<?xml version="1.0" encoding="utf-8"?>
<!-- Generator: Adobe Illustrator 20.1.0, SVG Export Plug-In . SVG Version: 6.00 Build 0)  -->
<svg version="1.1" id="Layer_1" xmlns="http://www.w3.org/2000/svg" xmlns:xlink="http://www.w3.org/1999/xlink" x="0px" y="0px"
	 viewBox="0 0 57.1 62.1" style="enable-background:new 0 0 57.1 62.1;" xml:space="preserve">
<style type="text/css">
	.st0{fill:#DFDFE0;}
	.st1{fill:#A3A2A2;}
</style>
<g>
	<polygon class="st0" points="41.3,3 3,3 3,54.1 54.1,54.1 54.1,15.7 41.3,15.7 	"/>
	<polygon class="st1" points="55.6,15.7 55.6,55.6 35,55.6 1.5,55.6 1.5,1.5 41.3,1.5 41.3,0 0,0 0,57.1 57.1,57.1 57.1,15.7 	"/>
	<polygon class="st1" points="54.1,54.1 3,54.1 3,3 41.3,3 41.3,1.5 1.5,1.5 1.5,55.6 35,55.6 55.6,55.6 55.6,15.7 54.1,15.7 	"/>
	<polygon class="st0" points="51.9,12.7 44.3,5.1 44.3,12.7 	"/>
	<polygon class="st1" points="42.8,14.2 42.8,3.6 42.2,3 41.3,3 41.3,15.7 54.1,15.7 54.1,14.8 53.4,14.2 50.7,14.2 	"/>
	<polygon class="st1" points="42.8,1.5 42.8,1.5 42.8,1.5 55.6,14.2 55.6,14.2 55.6,14.2 55.6,15.7 57.1,15.7 57.1,13.6 43.5,0 
		41.3,0 41.3,1.5 	"/>
	<polygon class="st1" points="55.6,14.2 53.4,14.2 54.1,14.8 54.1,15.7 55.6,15.7 55.6,14.2 	"/>
	<polygon class="st1" points="42.2,3 42.8,3.6 42.8,1.5 42.8,1.5 41.3,1.5 41.3,3 	"/>
	<polygon class="st1" points="44.3,12.7 44.3,5.1 42.8,3.6 42.8,14.2 50.7,14.2 53.4,14.2 51.9,12.7 	"/>
	<polygon class="st1" points="55.6,14.2 42.8,1.5 42.8,1.5 55.6,14.2 	"/>
	<polygon class="st1" points="44.3,5.1 51.9,12.7 53.4,14.2 55.6,14.2 42.8,1.5 42.8,3.6 	"/>
</g>
<g>
	<polygon class="st1" points="36.2,62.1 20.9,62.1 20.9,36.6 28.5,31.9 36.2,36.6 	"/>
	<g>
		<polygon class="st1" points="28.5,29.9 38.9,40.3 40.1,40.3 41,39.4 28.5,27 16.1,39.4 16.9,40.3 18.1,40.3 20.8,37.6 		"/>
		<polygon class="st1" points="41,42.4 41,42.4 41,42.4 16.1,42.4 16.1,42.4 16.1,42.4 14.6,40.9 13.1,42.4 15.2,44.5 41.9,44.5 
			43.9,42.4 42.5,40.9 		"/>
		<polygon class="st1" points="16.1,42.4 18.1,40.3 16.9,40.3 16.1,39.4 14.6,40.9 16.1,42.4 		"/>
		<polygon class="st1" points="40.1,40.3 38.9,40.3 41,42.4 41,42.4 42.5,40.9 41,39.4 		"/>
		<polygon class="st1" points="28.5,32.9 36,40.3 38.9,40.3 28.5,29.9 20.8,37.6 18.1,40.3 21.1,40.3 		"/>
		<polygon class="st1" points="36,40.3 21.1,40.3 18.1,40.3 16.1,42.4 41,42.4 38.9,40.3 		"/>
	</g>
</g>
</svg>
