<?xml version="1.0" encoding="utf-8"?>
<!-- Generator: Adobe Illustrator 20.1.0, SVG Export Plug-In . SVG Version: 6.00 Build 0)  -->
<svg version="1.1" id="Layer_1" xmlns="http://www.w3.org/2000/svg" xmlns:xlink="http://www.w3.org/1999/xlink" x="0px" y="0px"
	 viewBox="0 0 76.1 75.5" style="enable-background:new 0 0 76.1 75.5;" xml:space="preserve">
<style type="text/css">
	.st0{fill:#52B6D5;stroke:#4AB2C1;stroke-width:3;stroke-miterlimit:10;}
	.st1{fill:#72BFCE;}
</style>
<path class="st0" d="M66.8,56.2V45.2h0c0-13.9-9.9-25.5-23-28.2c0-0.1,0-0.2,0-0.3c0-2.7-1.9-5-4.5-5.6V4h4.4V1.5H32.4V4h4.4v7.1
	c-2.6,0.6-4.5,2.9-4.5,5.6c0,0.1,0,0.2,0,0.3c-13.1,2.7-23,14.3-23,28.2h0v11.1H1.5V74h7.8h57.5h7.8V56.2H66.8z"/>
<rect x="1.5" y="63.9" class="st0" width="73.1" height="8.5"/>
<path class="st1" d="M34,23.1v-3c-12.1,2-21.3,12.5-21.3,25.2H16c0-0.1,0-0.2,0-0.3C16,34.2,23.7,25.1,34,23.1z"/>
</svg>
